<?xml version="1.0" standalone="no"?>
<!DOCTYPE svg PUBLIC "-//W3C//DTD SVG 20010904//EN"
 "http://www.w3.org/TR/2001/REC-SVG-20010904/DTD/svg10.dtd">
<svg version="1.0" xmlns="http://www.w3.org/2000/svg"
 width="1600.000000pt" height="1600.000000pt" viewBox="0 0 1600.000000 1600.000000"
 preserveAspectRatio="xMidYMid meet">

<g transform="translate(0.000000,1600.000000) scale(0.100000,-0.100000)"
fill="#000000" stroke="none">
<path d="M7210 13069 c-690 -76 -1288 -391 -1722 -909 -170 -202 -337 -488
-431 -738 l-42 -114 -110 -28 c-627 -164 -1142 -530 -1497 -1068 -357 -542
-500 -1210 -393 -1838 24 -138 73 -328 117 -449 90 -251 270 -565 437 -765 45
-54 69 -91 65 -100 -21 -54 -77 -298 -96 -415 -26 -169 -31 -520 -9 -675 69
-501 274 -967 586 -1339 585 -695 1483 -1028 2379 -882 l117 20 103 -103 c205
-204 417 -356 671 -481 250 -123 473 -194 750 -237 191 -29 549 -32 740 -5
433 62 843 231 1190 492 140 105 314 270 427 405 170 202 337 488 431 738 l42
114 110 28 c627 164 1142 530 1497 1068 357 542 500 1210 393 1838 -24 138
-73 328 -117 449 -90 251 -270 565 -437 765 -45 54 -69 91 -65 100 21 54 77
298 96 415 26 169 31 520 9 675 -69 501 -274 967 -586 1339 -585 695 -1483
1028 -2379 882 l-117 -20 -103 103 c-205 204 -417 356 -671 481 -249 123 -478
195 -748 236 -153 23 -502 33 -637 18z m480 -670 c205 -21 473 -105 660 -206
99 -53 232 -140 285 -186 l37 -33 -1053 -608 c-602 -347 -1070 -624 -1092
-644 -21 -21 -51 -59 -65 -87 l-27 -50 -3 -1474 c-2 -1369 -3 -1473 -19 -1467
-9 4 -205 116 -435 248 l-419 242 4 1321 3 1320 27 121 c132 593 513 1079
1047 1333 332 157 660 211 1050 170z m2398 -790 c763 -83 1386 -586 1623
-1313 69 -212 95 -408 85 -651 -8 -211 -13 -248 -33 -241 -9 4 -483 277 -1055
607 -573 330 -1059 607 -1081 615 -50 18 -141 18 -198 1 -24 -8 -598 -334
-1276 -725 -677 -392 -1239 -715 -1247 -718 -14 -6 -16 42 -16 494 l0 499
1060 612 c584 337 1102 632 1153 656 299 140 660 200 985 164z m-5196 -2272
l3 -1242 33 -67 c19 -39 49 -80 70 -98 20 -17 596 -353 1279 -748 683 -394
1238 -721 1234 -725 -4 -4 -198 -118 -431 -252 l-423 -244 -31 16 c-102 53
-2103 1214 -2156 1251 -317 222 -550 516 -690 870 -143 362 -170 785 -74 1167
140 556 538 1029 1064 1267 58 26 108 47 112 48 4 0 9 -559 10 -1243z m5523
75 c566 -327 1059 -615 1095 -640 317 -222 550 -516 690 -870 143 -362 170
-785 74 -1167 -141 -559 -546 -1039 -1072 -1270 -56 -25 -104 -45 -107 -45 -3
0 -6 559 -7 1243 l-3 1242 -33 67 c-19 39 -49 80 -70 98 -20 17 -596 353
-1279 748 -683 394 -1238 721 -1234 725 4 4 198 118 431 252 l423 244 31 -16
c17 -9 494 -284 1061 -611z m-1871 -462 l546 -315 0 -635 0 -635 -550 -317
-550 -318 -550 318 -550 317 0 635 0 635 548 317 c301 174 550 316 554 315 3
-1 252 -144 552 -317z m1458 -842 l418 -242 -2 -1316 -3 -1315 -23 -109 c-172
-808 -796 -1402 -1599 -1521 -139 -21 -393 -21 -538 0 -211 30 -447 106 -625
202 -99 53 -232 140 -285 186 l-37 32 1053 609 c601 347 1070 624 1092 644 21
21 51 60 65 87 l27 50 3 1474 c2 1369 3 1473 19 1467 9 -4 205 -116 435 -248z
m-912 -1787 l0 -498 -1060 -612 c-584 -337 -1102 -632 -1153 -656 -300 -140
-659 -200 -985 -164 -764 83 -1386 586 -1623 1313 -69 212 -95 408 -85 651 8
212 13 248 34 240 8 -3 483 -276 1055 -606 572 -331 1058 -607 1080 -615 54
-19 152 -17 212 5 28 10 604 338 1280 729 677 392 1233 712 1238 712 4 0 7
-224 7 -499z"/>
</g>
</svg>
