<svg xmlns="http://www.w3.org/2000/svg" width="18" height="18" viewBox="0 0 18 18">
  <defs>
    <linearGradient id="f0a31958-f600-42da-b7f5-bf435090989d" x1="6.772" y1="12.674" x2="6.772" y2="1.396" gradientUnits="userSpaceOnUse">
      <stop offset="0" stop-color="#32bedd" />
      <stop offset="1" stop-color="#50e6ff" />
    </linearGradient>
    <linearGradient id="fcc13c3c-53f0-4887-9cf7-3a700528107e" x1="12.3" y1="16.604" x2="12.3" y2="4.278" gradientUnits="userSpaceOnUse">
      <stop offset="0" stop-color="#773adc" />
      <stop offset="1" stop-color="#a67af4" />
    </linearGradient>
  </defs>
  <path d="M12.811,1.4l-.052,0H.785l-.05,0A.74.74,0,0,0,0,2.074v8.189a.738.738,0,0,0,.734.677h3.99a.123.123,0,0,1,.122.113v1.39a.262.262,0,0,0,.42.179L7.78,10.962a.146.146,0,0,1,.079-.023H12.81a.739.739,0,0,0,.735-.677V2.074A.738.738,0,0,0,12.811,1.4Z" fill="url(#f0a31958-f600-42da-b7f5-bf435090989d)" />
  <path d="M9.625,5.05a.895.895,0,1,1-.894.894h0A.894.894,0,0,1,9.625,5.05Zm-3.747.906a.895.895,0,1,0,.895-.9.895.895,0,0,0-.895.9Zm-2.853,0a.895.895,0,1,0,.894-.9.895.895,0,0,0-.894.9Z" fill="#fff" />
  <path d="M17.339,7.112H14.245v3.18l0,.029A1.446,1.446,0,0,1,12.81,11.64H8.025l-1.426.94v1.995a.622.622,0,0,0,.661.569h4.377a.122.122,0,0,1,.067.02l2.116,1.395a.221.221,0,0,0,.309-.04.216.216,0,0,0,.044-.111v-1.17a.1.1,0,0,1,.111-.094h3.055A.621.621,0,0,0,18,14.574V7.681A.621.621,0,0,0,17.339,7.112Z" fill="url(#fcc13c3c-53f0-4887-9cf7-3a700528107e)" />
</svg>